<svg xmlns="http://www.w3.org/2000/svg" style="display:none;">
  <symbol id="icon-check" viewBox="0 0 20 20">
    <path
      fill="currentColor"
      fill-rule="evenodd"
      d="M3 10a7 7 0 019.307-6.611 1 1 0 00.658-1.889 9 9 0 105.98 7.501 1 1 0 00-1.988.22A7 7 0 113 10zm14.75-5.338a1 1 0 00-1.5-1.324l-6.435 7.28-3.183-2.593a1 1 0 00-1.264 1.55l3.929 3.2a1 1 0 001.38-.113l7.072-8z"
    />
  </symbol>
</svg>

<svg xmlns="http://www.w3.org/2000/svg" style="display:none;">
  <symbol id="icon-list-check" viewBox="0 0 16 16">
    <path fill="currentColor" fill-rule="evenodd" d="M5 11.5a.5.5 0 0 1 .5-.5h9a.5.5 0 0 1 0 1h-9a.5.5 0 0 1-.5-.5m0-4a.5.5 0 0 1 .5-.5h9a.5.5 0 0 1 0 1h-9a.5.5 0 0 1-.5-.5m0-4a.5.5 0 0 1 .5-.5h9a.5.5 0 0 1 0 1h-9a.5.5 0 0 1-.5-.5M3.854 2.146a.5.5 0 0 1 0 .708l-1.5 1.5a.5.5 0 0 1-.708 0l-.5-.5a.5.5 0 1 1 .708-.708L2 3.293l1.146-1.147a.5.5 0 0 1 .708 0m0 4a.5.5 0 0 1 0 .708l-1.5 1.5a.5.5 0 0 1-.708 0l-.5-.5a.5.5 0 1 1 .708-.708L2 7.293l1.146-1.147a.5.5 0 0 1 .708 0m0 4a.5.5 0 0 1 0 .708l-1.5 1.5a.5.5 0 0 1-.708 0l-.5-.5a.5.5 0 0 1 .708-.708l.146.147 1.146-1.147a.5.5 0 0 1 .708 0"></path>
  </symbol>
</svg>

<svg xmlns="http://www.w3.org/2000/svg" style="display:none;">
  <symbol id="icon-rotate" viewBox="0 0 24 24">
    <path fill="currentColor" d="M19 8l-4 4h3c0 3.31-2.69 6-6 6c-1.01 0-1.97-.25-2.8-.7l-1.46 1.46C8.97 19.54 10.43 20 12 20c4.42 0 8-3.58 8-8h3l-4-4zM6 12c0-3.31 2.69-6 6-6c1.01 0 1.97.25 2.8.7l1.46-1.46C15.03 4.46 13.57 4 12 4c-4.42 0-8 3.58-8 8H1l4 4l4-4H6">
      <animateTransform attributeName="transform" attributeType="XML" dur="5s" from="360 12 12" repeatCount="indefinite" to="0 12 12" type="rotate"/>
    </path>
  </symbol>
</svg>